<svg id="Layer_1" data-name="Layer 1" xmlns="http://www.w3.org/2000/svg" xmlns:xlink="http://www.w3.org/1999/xlink" viewBox="0 0 1500 1000"><defs><style>.cls-1{fill:none;}.cls-2{clip-path:url(#clip-path);}.cls-3{fill:#003893;}.cls-4{fill:#dc143c;}.cls-5{fill:#fff;}</style><clipPath id="clip-path"><path class="cls-1" d="M786.33,687.71l6.75-4.38c-.29-3.22-1.73-6.78-.63-9.16,3.87-8.41.72-15.78-2.26-23.26-.49-1.24-2.2-2.32-3.58-2.84-14.55-5.46-29.16-10.79-44.25-16.34,3.65-8.09-1.81-10.14-6.26-12.55-4.65-2.53-7.61.43-10.74,3.54-3.92,3.9-7.86,2.8-12.38-.48-3-2.15-7.93-3.67-11.21-2.72-4,1.14-2.66,5.62-1.41,9.16.41,1.17-.65,2.85-1,4.3-1.42-.44-3.1-.54-4.21-1.38-7.81-5.9-15.64-11.78-23.2-18-8-6.61-17.08-6.05-26.4-4.6-3.59.56-4.44,2.73-4.47,6.18-.06,7.17-4,10.67-10.93,10-3.3-.33-6.18-1-6.36-5.82-.22-6-6.65-11-12.77-11.32a104.73,104.73,0,0,1-12.4-1c-2.58-.42-6.76-1.16-7.25-2.7-2.6-8.21-10.73-7.37-16.15-10.78a7.22,7.22,0,0,0-4.26-.58c-5.75.6-7.59-1.5-7.21-7.36.21-3.22-.87-6.5-1-9.77-.25-4.5-.2-9-.3-15.13-5.75.49-11.46.94-17.15,1.47-4.87.45-10.3,2.56-14.44,1.07A19.84,19.84,0,0,1,520.33,553c-2-4.89-4.26-8.77-8.55-11.54-5.76-3.72-9.59-10.08-17.23-11.47-2.48-.45-4.93-4-6.33-6.68-2.07-4-4.53-4.36-8-2.45-1.26.69-2.32,1.77-3.58,2.45-10.23,5.51-16.38,4.06-24.21-5.73-3.44-4.29-5.16-9.38-12.18-11-5-1.18-8.8-7.45-13.11-11.5-7-6.54-14.26-12.8-20.72-19.82A50.87,50.87,0,0,1,397,460.5c-2.31-5.56-2.93-11.82-4.17-17.28-5.47-2.06-10.93-3.51-15.77-6.12a72.72,72.72,0,0,1-15.54-10.66c-5.47-5.17-9.86-11.48-14.84-17.19a39.19,39.19,0,0,0-5-4.43c-2.16-1.75-4.44-3.35-6.6-5.1-1.74-1.41-3.18-3.84-5.09-4.25-4-.83-4.49-3.5-5.42-6.58-.45-1.47-2.32-2.52-3.54-3.76-1.33,1.32-3.42,2.43-3.85,4-1.06,3.88-1.35,8-3.45,12.52-2.34-3.19-4.08-7.41-7.21-9.25-2.93-1.72-7.34-.91-11.91-1.28a5.82,5.82,0,0,1-.79-1.78c-2.21-9.67-8.49-14.89-17.26-19.38-5.83-3-10.55-9.59-13.83-15.63-2.88-5.32,1.95-12.5,7.94-14.61,6.22-2.2,7.12-3.82,4.43-10-1.78-4.1-.75-6.18,3.39-7.32,1.55-.43,3-2.07,4.44-2,12.25.64,15-9,18.28-17.36,1.12-2.81.19-6.61-.38-9.85-.74-4.25-2.43-8.35-2.92-12.6-.18-1.67,1.46-3.89,2.83-5.33,4.67-4.88,9.57-9.54,14.44-14.22a34.8,34.8,0,0,1,4.38-3.45c4-2.73,5.16-8.82,2.45-12.67-4.29-6.11.31-17.26,7.68-16.89,11.66.58,16.07-6.78,19.61-15.51,1.8-4.45,4.29-6.31,9-5,3.1.88,5.76.69,6.71-3.24.22-.91,1.25-2.39,1.81-2.34,7.29.58,7.58-6.35,11.18-9.75,5.15-4.84,11.66-8.24,17.65-12.16a62.65,62.65,0,0,1,9.56-5.62,8.62,8.62,0,0,1,6.3.06c.75.33-.15,3.69.31,5.52s1.26,4,2.66,5c3.17,2.25,4.31,4.42,3.72,8.61s.51,8.59,1.59,12.72c.35,1.31,3,2.38,4.71,2.87a71.11,71.11,0,0,0,8.5,1.37c4.38-3.3,8.09-6.88,5.59-13.43-.32-.84,2.1-3.93,3.32-4,6.4-.23,10.17-2.93,11.1-9.42a4.77,4.77,0,0,1,1.74-3.14c4.43-2.56,4.71-5.31,3.08-10.28-1.06-3.24,1.66-7.87,3.25-11.63.2-.48,4.43-.23,5.74.9,5.26,4.54,10.18,6.82,16.07,1,5.05-5,10.57-4.23,14.33,1.12,6.43,9.14,17.54,8.34,25.81,13.39,2.2,1.35,4.22,3.23,6.6,4,2.93.95,6.15,1,9.24,1.45,2.22.32,6,.07,6.36,1.08,1.1,2.92,2.16,7.07.87,9.46-3.51,6.52-.58,10.15,4.4,13.15,5.84,3.51,3.35,8.1,2.06,12.56a40.57,40.57,0,0,1-2.33,5.13c13,.29,21.16,8.39,30,14.89,3.56,2.61,5.63,7.19,11,7,.88,0,2.15,1.34,2.64,2.36,2.35,4.81,4.5,9.72,6.93,15,4-2.71,8.11-4.33,10.81,1.24,2.2,4.55,2.25,8.62-3.44,9.8,4.54,4.56,8.74,9.26,13.52,13.28,1.53,1.3,4.61,1.23,6.92,1,3.23-.29,6.64-2,7.16,3.42.07.68,1.71,1.3,2.71,1.78,1.82.88,4.13,1.21,5.49,2.53,3.3,3.24,6.59,4.55,11.53,5.06,4.57.46,8.79,5.22,13,8.36,1.64,1.23,2.74,3.2,4.63,5.49-5,10.31,7,13.8,10.38,21.26,1.05,2.3,3,4.3,3.59,6.67.7,3,.28,6.2.54,9.3.09,1.16.56,3.15,1.16,3.27,5.84,1.19,6.31,5.89,8.16,10.36,1.6,3.85,5.39,7,8.77,9.75.78.64,4.59-1,5.71-2.47,3.75-5.1,7-10.31,14.51-5.68.6.36,3.33-1.12,3.61-2.14,1.09-3.92,3.72-4.24,7.11-4.41,3.81-.19,7.58-1.16,11.37-1.77.6-.1,1.55-.38,1.8-.1,7,8,19.75,5.85,26.16,15.06,3.58,5.15,3.51,7.43-1.94,10.86a48.87,48.87,0,0,1-4.69,2.35l1,1.93,7-.19c-1,4-1.79,7.47-2.64,11,9.1,7,9,7,5.1,19.45a6.1,6.1,0,0,0,1.52,5.2,28.9,28.9,0,0,0,7.54,4.25c6.84,3,10.78,8.13,11.52,15.51.46,4.6,3.33,6.37,7.33,7.17a56.61,56.61,0,0,0,6.64,1.35c10.62.87,12.22,10.08,15.78,17.25,2.73,5.51,12.6,10.58,18.46,10.54,7.81,0,13.38-3.26,19-8.21,5.82-5.11,11.44-3.5,15.56,3.17,1.17,1.91,2.4,3.79,2.94,4.64-1.52,5.88-2.14,11.24-4.29,15.88-2.44,5.26-6.31,9.86-9.47,14.79-2.94,4.6-2,6.8,3.21,8.32,5.56,1.64,11.54,1.66,15.8,7.31,1.57,2.1,7.63,2.39,10.95,1.34,16-5.08,19.73-4.48,32.07,7.74l10.11-13.74,2.24.64c.75,4.74,2.47,9.57,2,14.19-.58,6.07,2.47,9.47,5.88,13.56,2.74,3.28,5.81,7.81,5.64,11.64-.34,7.44,3.34,12.08,7.8,16.72,2.39,2.49,4.5,4.61,2.83,8.68-.51,1.22,1.2,4.27,2.68,5.17a14.66,14.66,0,0,0,7.59,1.73c.55,0,1.48-3.79,1.46-5.82-.09-7.21-.66-14.18,7.26-18.57,3.14-1.75,5.14-5.57,8.39-9.28,1.6,6.19,4.69,10.55,1.81,16.53-2.37,4.91,2.65,14,8.44,14.32,6.93.44,9.93,4.9,13.81,9a7.87,7.87,0,0,0,1.36,1.08l9.76-6.68c.5-.34,1.28-.59,1.44-1,1.12-3.31,1.51-7.05,3.33-9.89,1.66-2.59,4.82-4.21,7.86-6.69l5.32,8c1.44-6.12,4.12-8.93,10.15-7.67,7.49,1.57,5.72,6.68,4.87,12.55,4.09,1.19,8.27,2,12.11,3.66,2.37,1,4.41,3,6.27,4.92,1.5,1.53,2.49,5.05,3.76,5.08,9.19.22,13.52,6.58,15.91,13.57,2.6,7.59,8.89,9.34,14.86,13,.93-1.62,1.39-3.61,2.57-4.23,1.77-.94,5.16-2,5.93-1.16,3.69,3.92,7.46,4.69,12.24,2.45,1-.46,3-.36,3.58.31,4.8,5.69,10.89,2.72,16.55,2.9,1.52,0,3,1.19,4.5,2s3,1.9,4.58,2.77c2.19,1.23,4.43,2.36,8.14,4.32,1.41-1.2,4.26-3.41,6.85-5.89s4.89-5.72,7.73-8.09c3.71-3.09,7.81-5.8,10.67,1.23.34.82,1.88,1.3,2.95,1.63,8.9,2.74,17.91,5.15,26.69,8.22,3.53,1.24,6.14,3.78,5.1,8.65-.64,3,1.73,7.49.27,9.35-6.17,7.78-7.51,19.14-17.74,24-1.4.67-1.91,3.51-2.56,5.43q-3.3,9.87-6.35,19.82a4,4,0,0,0,.19,3c4.13,6.09,1.45,10-2.72,15.23-3.64,4.52-5.19,11.18-6.32,17.15-1.5,7.94,5.37,12.94,8.57,19.23.45.88,2.08,1.61,2,2.24-1.47,10.37,6.54,19.5,2.86,30.59-3.34,10.08-5.74,20.15-13.81,27.77-1.25,1.19-2.42,4.16-1.8,5.34,2.61,4.93-.75,8.09-3,11.21a30.61,30.61,0,0,1-8.69,8.14c-1.63,1-5,0-7.06-1-1.69-.83-2.66-3.1-4-4.69-5.67-6.75-12-7.8-20-3.88a6.87,6.87,0,0,1-5.68-.42c-3.38-2.09-6.14-1.79-9.14.5-3.64,2.76-7.27,2.2-9.83-1.33-5.84-8-14.42-6-22.27-6.28-1.39,0-3.3,1.83-4.22,3.3-2.8,4.42-5.71,4.8-9.57,1.3-4.48-4.07-8.37-9.46-16-7.42-.5.13-2.48-4.62-3.5-7.21-1.69-4.25-2.5-9.06-5-12.69-1.15-1.66-5.9-2.17-8.38-1.33-9.92,3.4-17.6,12.39-29.21,11.74-1.79-.1-4,.43-5.32-.39-8.45-5.15-17.29-9.7-23.48-18-4.8-6.48-10.59-12.09-19.4-13.25-1.62-.21-3-2.56-4.47-4-12.33,5.72-22,3.53-30.48-7-4.37-5.43-9-5.3-13.65.39-3.77,4.65-9.53,4.44-13.86,0-2.06-2.11-5.13-3.21-7.43-5.13-6.21-5.16-4-12.25-3.53-18.63.69-9.24-6-15.74-14.88-13.49-3.39.86-6.61,2.4-9.93,3.57-1.52.53-3.62,1.81-4.55,1.25-6.25-3.76-10.74.41-14.9,3.54-4.55,3.42-8.07,2.74-12.24-.18-4.34-3-7.26-6.66-6.91-12.23a35.6,35.6,0,0,0,.36-4.34c-.32-5-2.91-6.41-7.43-4.07-5,2.57-9,2.36-13.33-2-3.35-3.34-6.88-5.6-7.46-11.13-.43-4.07-16.53-13.31-20.8-12.8C794.48,695.71,790.85,692.05,786.33,687.71Z"/></clipPath></defs><title>nepal</title><g class="cls-2"><polygon class="cls-3" points="910.9 1167.06 -40.91 17.62 1342.23 -167.06 740.42 331.28 1800.63 430.31 910.9 1167.06"/><path id="_28" data-name="28" class="cls-4" d="M434.58,550.57,1255.25-129,9.57,37.31,914.48,1130.12l820.68-679.57-1499.37-140Z"/><path id="_27" data-name="27" class="cls-5" d="M316.91,323.56c110.14,60.77,248.81,20.72,309.75-89.46A227.92,227.92,0,0,0,643.82,52.85c74.66,90.16,62,223.84-28.28,298.6s-224,62.26-298.63-27.89"/><path id="_26" data-name="26" class="cls-5" d="M480.37,188.21a98.62,98.62,0,1,1-13.16,139A98.68,98.68,0,0,1,480.37,188.21Z"/><path id="_25" data-name="25" class="cls-5" d="M514.26,169.88,478.2,143.63l2.17,44.58"/><path id="_24" data-name="24" class="cls-5" d="M552.58,165.92l-23.26-38.07-15.06,42"/><path id="_23" data-name="23" class="cls-5" d="M589.47,176.91l-6.9-44.08-30,33.09"/><path id="_22" data-name="22" class="cls-5" d="M619.33,201.18l10.5-43.38-40.36,19.11"/><path id="_21" data-name="21" class="cls-5" d="M637.62,235.05,663.92,199l-44.59,2.22"/><path id="_20" data-name="20" class="cls-5" d="M641.54,273.35l38.1-23.3-42-15"/><path id="_19" data-name="19" class="cls-5" d="M456.05,218.09,437,177.76l43.39,10.45"/><path id="_18" data-name="18" class="cls-5" d="M445,255,412,225.05l44.1-7"/><path id="_17" data-name="17" class="cls-5" d="M448.92,293.29l-42-15L445,255"/><path id="_16" data-name="16" class="cls-5" d="M467.21,327.16l-44.59,2.22,26.3-36.09"/><path id="_15" data-name="15" class="cls-5" d="M497.07,351.43l-40.36,19.12,10.5-43.39"/><polygon id="_1" data-name="1" class="cls-5" points="666.1 591.27 735.8 657.01 654.98 708.7 748.27 730.75 704.07 815.88 795.95 788.33 800.22 884.1 866.07 814.33 917.67 895.07 939.84 801.77 1024.94 845.85 997.5 754.03 1093.29 749.63 1023.59 683.89 1104.42 632.21 1011.13 610.15 1055.32 525.02 963.45 552.57 959.17 456.81 893.33 526.57 841.73 445.84 819.55 539.13 734.46 495.06 761.89 586.88 666.1 591.27"/></g></svg>